<?xml version="1.0" encoding="UTF-8" standalone="no"?>
<!-- Created with Inkscape (http://www.inkscape.org/) -->

<svg
   xmlns:dc="http://purl.org/dc/elements/1.1/"
   xmlns:cc="http://creativecommons.org/ns#"
   xmlns:rdf="http://www.w3.org/1999/02/22-rdf-syntax-ns#"
   xmlns:svg="http://www.w3.org/2000/svg"
   xmlns="http://www.w3.org/2000/svg"
   xmlns:sodipodi="http://sodipodi.sourceforge.net/DTD/sodipodi-0.dtd"
   xmlns:inkscape="http://www.inkscape.org/namespaces/inkscape"
   width="1024"
   height="1024"
   viewBox="0 0 1024 1024"
   id="svg2"
   version="1.1"
   inkscape:version="0.91 r13725"
   inkscape:export-filename="/home/web/www.4bl.it/www/img/logo-1024x1024.png"
   inkscape:export-xdpi="90"
   inkscape:export-ydpi="90"
   sodipodi:docname="logo.svg">
  <defs
     id="defs4" />
  <sodipodi:namedview
     id="base"
     pagecolor="#ffffff"
     bordercolor="#666666"
     borderopacity="1.0"
     inkscape:pageopacity="0.0"
     inkscape:pageshadow="2"
     inkscape:zoom="0.49497475"
     inkscape:cx="248.85044"
     inkscape:cy="539.8765"
     inkscape:document-units="px"
     inkscape:current-layer="text4291"
     showgrid="false"
     inkscape:window-width="1366"
     inkscape:window-height="717"
     inkscape:window-x="0"
     inkscape:window-y="0"
     inkscape:window-maximized="1"
     units="px" />
  <metadata
     id="metadata7">
    <rdf:RDF>
      <cc:Work
         rdf:about="">
        <dc:format>image/svg+xml</dc:format>
        <dc:type
           rdf:resource="http://purl.org/dc/dcmitype/StillImage" />
        <dc:title></dc:title>
      </cc:Work>
    </rdf:RDF>
  </metadata>
  <g
     inkscape:label="Livello 1"
     inkscape:groupmode="layer"
     id="layer1"
     transform="translate(0,-28.362161)">
    <g
       style="font-style:normal;font-weight:normal;font-size:40px;line-height:125%;font-family:sans-serif;letter-spacing:0px;word-spacing:0px;fill:#000000;fill-opacity:1;stroke:none;stroke-width:1px;stroke-linecap:butt;stroke-linejoin:miter;stroke-opacity:1"
       id="flowRoot4136">
      <g
         style="font-style:normal;font-weight:normal;font-size:40px;line-height:125%;font-family:sans-serif;letter-spacing:0px;word-spacing:0px;fill:#000000;fill-opacity:1;stroke:none;stroke-width:1px;stroke-linecap:butt;stroke-linejoin:miter;stroke-opacity:1"
         id="text4291">
        <path
           d="m 279.21249,519.21754 0,-91.90344 q 0,-4.04313 0.31101,-8.86378 0.31101,-4.82065 0.93303,-9.79681 l -81.17359,110.56403 79.92955,0 z m 58.00336,0 0,15.86151 q 0,2.48808 -1.55505,4.19863 -1.39955,1.71055 -4.50965,1.71055 l -27.67988,0 0,58.62538 -24.25878,0 0,-58.62538 -98.90116,0 q -3.1101,0 -5.44267,-1.71055 -2.17707,-1.86606 -2.79909,-4.50964 l -2.79909,-14.15096 108.38696,-143.84209 25.81383,0 0,142.44255 33.74458,0 z"
           style="font-style:normal;font-variant:normal;font-weight:normal;font-stretch:normal;font-size:50px;font-family:Lato;-inkscape-font-specification:Lato"
           id="path4296"
           inkscape:connector-curvature="0" />
        <path
           d="m 395.86548,561.6704 q 7.61974,10.26332 16.63903,14.46196 9.17479,4.19863 20.06014,4.19863 22.23721,0 34.05559,-15.706 11.81837,-15.706 11.81837,-46.807 0,-28.92392 -10.57433,-42.45285 -10.41884,-13.68444 -29.85696,-13.68444 -13.52893,0 -23.63675,6.2202 -9.95232,6.2202 -18.50509,17.57206 l 0,76.19744 z m 0,-96.8796 q 9.95231,-11.50737 22.39271,-18.34959 12.5959,-6.84221 28.92393,-6.84221 13.83994,0 24.88079,5.28716 11.19636,5.28717 18.97161,15.395 7.77525,9.95231 11.81837,24.25877 4.19864,14.30646 4.19864,32.18953 0,19.12711 -4.66515,34.83311 -4.66515,15.706 -13.52893,26.90236 -8.70828,11.04085 -21.30418,17.26105 -12.59591,6.0647 -28.30191,6.0647 -15.55049,0 -26.28034,-5.75369 -10.57433,-5.90919 -18.50509,-16.63903 l -1.39954,14.30646 q -1.24404,5.90919 -7.15323,5.90919 l -17.88307,0 0,-229.05882 27.83539,0 0,94.23601 z"
           style="font-style:normal;font-variant:normal;font-weight:normal;font-stretch:normal;font-size:50px;font-family:Lato;-inkscape-font-specification:Lato"
           id="path4298"
           inkscape:connector-curvature="0" />
        <path
           d="m 570.97869,370.55479 0,229.05882 -27.67989,0 0,-229.05882 27.67989,0 z"
           style="font-style:normal;font-variant:normal;font-weight:normal;font-stretch:normal;font-size:50px;font-family:Lato;-inkscape-font-specification:Lato"
           id="path4300"
           inkscape:connector-curvature="0" />
        <path
           d="m 611.20098,582.50806 q 0,-4.04313 1.39955,-7.61974 1.55505,-3.57662 4.04312,-6.2202 2.64359,-2.64359 6.2202,-4.19864 3.57662,-1.55504 7.61975,-1.55504 4.04313,0 7.61974,1.55504 3.57661,1.55505 6.2202,4.19864 2.64358,2.64358 4.19863,6.2202 1.55505,3.57661 1.55505,7.61974 0,4.19864 -1.55505,7.77525 -1.55505,3.42111 -4.19863,6.06469 -2.64359,2.64359 -6.2202,4.04313 -3.57661,1.55505 -7.61974,1.55505 -4.04313,0 -7.61975,-1.55505 -3.57661,-1.39954 -6.2202,-4.04313 -2.48807,-2.64358 -4.04312,-6.06469 -1.39955,-3.57661 -1.39955,-7.77525 z"
           style="font-style:normal;font-variant:normal;font-weight:normal;font-stretch:normal;font-size:50px;font-family:Lato;-inkscape-font-specification:Lato"
           id="path4302"
           inkscape:connector-curvature="0" />
        <path
           style="font-style:normal;font-variant:normal;font-weight:normal;font-stretch:normal;font-size:50px;font-family:Lato;-inkscape-font-specification:Lato"
           d="m 718.60148,442.08708 0,157.52653 -27.67988,0 0,-157.52653 27.67988,0 z"
           id="path4310"
           inkscape:connector-curvature="0" />
        <path
           style="font-style:normal;font-variant:normal;font-weight:normal;font-stretch:normal;font-size:50px;font-family:Lato;-inkscape-font-specification:Lato;fill:#ff0000"
           d="m 724.51067,392.6365 q 0,4.04312 -1.71055,7.61974 -1.55505,3.42111 -4.35414,6.2202 -2.64359,2.64358 -6.37571,4.19863 -3.57661,1.55505 -7.61974,1.55505 -4.04313,0 -7.61974,-1.55505 -3.42111,-1.55505 -6.0647,-4.19863 -2.64358,-2.79909 -4.19863,-6.2202 -1.55505,-3.57662 -1.55505,-7.61974 0,-4.04313 1.55505,-7.61975 1.55505,-3.73212 4.19863,-6.3757 2.64359,-2.79909 6.0647,-4.35414 3.57661,-1.55505 7.61974,-1.55505 4.04313,0 7.61974,1.55505 3.73212,1.55505 6.37571,4.35414 2.79909,2.64358 4.35414,6.3757 1.71055,3.57662 1.71055,7.61975 z"
           id="path4304"
           inkscape:connector-curvature="0" />
        <path
           d="m 812.44388,602.10169 q -18.6606,0 -28.76842,-10.41884 -9.95232,-10.41883 -9.95232,-30.01245 l 0,-96.41308 -18.9716,0 q -2.48808,0 -4.19864,-1.39955 -1.71055,-1.55505 -1.71055,-4.66515 l 0,-11.04085 25.81382,-3.26561 6.37571,-48.67305 q 0.46651,-2.33257 2.02156,-3.73212 1.71055,-1.55505 4.35414,-1.55505 l 13.99545,0 0,54.27123 45.56295,0 0,20.06015 -45.56295,0 0,94.54702 q 0,9.95231 4.82065,14.77297 4.82065,4.82065 12.4404,4.82065 4.35414,0 7.46424,-1.08853 3.2656,-1.24404 5.59817,-2.64359 2.33258,-1.39954 3.88763,-2.48808 1.71055,-1.24404 2.95459,-1.24404 2.17707,0 3.88763,2.64359 l 8.08626,13.21792 q -7.15323,6.68671 -17.26106,10.57434 -10.10782,3.73212 -20.83766,3.73212 z"
           style="font-style:normal;font-variant:normal;font-weight:normal;font-stretch:normal;font-size:50px;font-family:Lato;-inkscape-font-specification:Lato"
           id="path4306"
           inkscape:connector-curvature="0" />
        <text
           xml:space="preserve"
           style="font-style:normal;font-weight:normal;font-size:40px;line-height:125%;font-family:sans-serif;letter-spacing:0px;word-spacing:0px;fill:#000000;fill-opacity:1;stroke:none;stroke-width:1px;stroke-linecap:butt;stroke-linejoin:miter;stroke-opacity:1"
           x="72.730988"
           y="674.56512"
           id="text4150"
           sodipodi:linespacing="125%"><tspan
             sodipodi:role="line"
             id="tspan4152"
             x="72.730988"
             y="674.56512"
             style="font-style:normal;font-variant:normal;font-weight:normal;font-stretch:normal;font-size:60px;font-family:Lato;-inkscape-font-specification:Lato">Telegram broadcasting made easy</tspan></text>
      </g>
    </g>
  </g>
</svg>
